<?xml version="1.0" encoding="UTF-8"?>
<svg viewBox="0 0 38 38" xmlns="http://www.w3.org/2000/svg">
<path d="m34.525 15.899h-1.2754v-0.0657h-14.25v6.3334h8.9482c-1.3055 3.6868-4.8133 6.3333-8.9482 6.3333-5.2464 0-9.5-4.2536-9.5-9.5s4.2536-9.5 9.5-9.5c2.4217 0 4.6249 0.9136 6.3025 2.4059l4.4784-4.4785c-2.8278-2.6355-6.6104-4.2608-10.781-4.2608-8.744 0-15.833 7.0893-15.833 15.833s7.0893 15.833 15.833 15.833c8.7439 0 15.833-7.0893 15.833-15.833 0-1.0616-0.1092-2.0979-0.3079-3.101z" fill="#FFB400"/>
<path d="m4.9922 11.63 5.202 3.815c1.4076-3.4849 4.8165-5.9454 8.8057-5.9454 2.4217 0 4.6249 0.9136 6.3025 2.4059l4.4784-4.4785c-2.8278-2.6355-6.6104-4.2608-10.781-4.2608-6.0816 0-11.356 3.4335-14.008 8.4637z" fill="#FF3D00"/>
<path d="m19 34.833c4.0898 0 7.8058-1.5651 10.616-4.1103l-4.9004-4.1467c-1.6431 1.2495-3.6508 1.9253-5.7151 1.9237-4.1182 0-7.615-2.626-8.9324-6.2906l-5.1632 3.9781c2.6204 5.1277 7.942 8.6458 14.096 8.6458z" fill="#4CAF50"/>
<path d="m34.525 15.899h-1.2754v-0.0657h-14.25v6.3334h8.9482c-0.6245 1.7546-1.7493 3.2879-3.2355 4.4103l0.0023-0.0015 4.9005 4.1467c-0.3468 0.3151 5.2178-3.8055 5.2178-11.722 0-1.0616-0.1092-2.0979-0.3079-3.101z" fill="#1976D2"/>
</svg>
